<svg fill="#D8D8D8" xmlns="http://www.w3.org/2000/svg" viewBox="0 0 1925.84 824.26">
    <path d="M785.07,263.21c-4.44-8.61-11.6-12.14-20.84-10.54-5.35,.93-10.68,1.94-16.02,2.94-7.18,1.35-14.07,3.38-20.26,7.51-4.5,3-9.19,5.74-13.87,8.47-1.51,.88-3.3,1.78-4.79-.47,.72-2,1.03-4.36,2.28-6.03,3.87-5.19,3.28-10.73,2.36-16.58-.62-3.94-2.51-6.66-5.65-8.84-5.15-3.57-10.66-4.31-16.56-2.34-5.64,1.88-10.57,5.03-14.22,9.67-6.03,7.68-11.75,15.61-17.53,23.48-6.42,8.74-11.84,18.34-20.88,24.84-11.18,8.03-22.37,16.06-33.74,23.81-3.06,2.08-6.53,4.13-11.97,3.54,2.7-2.56,4.51-4.28,6.33-6,8.17-7.7,16.36-15.37,24.49-23.11,3.74-3.56,6.49-7.81,7.81-12.85,1.44-5.5-2.52-15.88-7.66-17.78-6.24-2.3-13.24-2.66-18.73,1.57-6.85,5.29-13.1,11.45-19.18,17.64-11.03,11.24-23.47,20.49-37.49,27.56-11.95,6.03-24.25,11.31-36.83,15.91-.48,.18-1.25-.44-2.58-.95,.95-1.51,1.55-3.25,2.75-4.25,10.99-9.04,19.56-20.35,28.83-30.95,7.25-8.3,10.53-18.21,5.92-29.24-2.44-5.83-7.32-9.24-13.25-9.95-8.05-.96-15.59,.96-22.78,5.35-9.4,5.74-16.95,13.63-24.96,20.83-9.64,8.67-18.02,18.8-23.97,30.6-2.02,4.01-5.01,7.35-9.16,8.98-10.43,4.1-20.98,7.87-31.54,11.63-1.09,.39-2.52-.17-4.27-.34,2.14-7.71,7.04-12.68,11.68-17.62,4.94-5.26,10.42-10.03,15.9-14.75,3.12-2.68,5.53-5.75,7.15-9.44,3.68-8.37-.53-17.02-9.4-19.73-7.11-2.17-13.51-.67-19.75,3.02-9.55,5.64-17.03,13.48-23.92,21.97-4.44,5.47-9.73,9.73-16.48,12.01-12.71,4.3-25.37,8.73-37.38,14.81-1.53,.77-3.36,1.59-4.62-.98,3.13-6.84,7.18-12.97,12.91-18.37,5.72-5.4,10.76-11.68,12.06-20.13,1.62-10.47-7.69-22.58-21.36-17.35-2.3,.88-4.43,2.48-6.28,4.15-2.14,1.93-4.03,4.2-5.78,6.51-5.48,7.2-10.82,14.5-16.25,21.74-3.7,4.94-9.43,9.77-15.44,12.93,3.29-6.14,6.07-11.96,9.41-17.45,7.68-12.64,15.61-25.13,23.51-37.64,1.53-2.42,3.5-4.55,5.09-6.94,6-9.03,11.91-18.13,17.92-27.15,.99-1.49,2.38-2.71,3.57-4.07,.93-1.06,2.37-2.01,2.66-3.23,1.24-5.26,5.25-8.64,8.22-12.69,5.35-7.29,10.89-14.44,16.5-21.54,2.01-2.54,4.28-4.93,6.7-7.08,5.67-5.03,11.69-9.68,17.23-14.84,5.75-5.36,11.38-10.8,17.33-15.97,14.74-12.83,28.09-27.12,41.59-41.24,4.33-4.52,7.95-9.35,9.76-14.77-.33-2.72-.45-4.9-.87-7.02-1.95-9.75-11.44-15.02-20.64-11.44-6.86,2.67-12.66,7.03-18.22,11.75-3.86,3.28-7.88,6.37-11.59,9.8-12.23,11.31-24.36,22.74-36.52,34.13-.26,.25-.45,.57-.69,.84-12.46,14.66-25.95,28.11-41.34,39.86-15.48,11.83-31.64,22.6-47.75,33.46-3.86,2.6-7.74,5.23-11.83,7.43-10.51,5.67-21.18,11.05-31.73,16.64-10.23,5.42-20.4,10.94-30.58,16.45-2.14,1.16-4.19,2.48-7.68,1.85,7.53-10.83,14.69-21.13,21.85-31.43,13.83-19.9,28.21-39.45,40.13-60.61,5.51-9.78,11.06-19.53,16.35-29.43,2.04-3.82,3.76-7.9,5.03-12.05,2.63-8.59,1.9-16.49-5.99-22.38-1.43-1.07-2.82-2.19-3.16-2.46-11.73-2.37-20.85,1.28-28.72,7.41-7.96,6.21-15.83,12.86-22.39,20.48-13.47,15.65-28.95,29.36-42.15,45.28-13.41,16.17-28.1,31.27-41.67,47.3-7.44,8.79-13.84,18.49-20.53,27.9-6.21,8.74-9,18.86-11.24,29.19-2.3,10.59,.7,19.24,8.87,26.28,1.51,1.3,2.67,3.01,3.8,4.3-4.16,5-7.64,9.61-11.57,13.81-7.41,7.92-15.54,15.22-22.52,23.5-7.24,8.6-17.31,14.32-23.51,23.87-.38,.59-.98,1.09-1.56,1.51-10.37,7.38-18.87,16.84-28.25,25.32-2.15,1.94-4.3,3.96-6.74,5.48-1.71,1.07-4.12,2.25-5.86,1.85-5.02-1.16-8.77,1-11.75,4.17-8.93,9.5-17.99,18.97-26.09,29.16-6,7.55-.81,17.24,8.91,17.77,2.41,.13,5.03-.33,7.28-1.2,6.79-2.62,12.78-6.71,18.88-10.65,12.51-8.07,24.08-17.34,35.6-26.7,9.58-7.78,19.36-15.34,27.6-24.63,.95-1.07,2.09-2.01,3.23-2.88,10.96-8.32,20.13-18.57,29.69-28.31,14.22-14.5,27.62-29.81,41.26-44.88,2.07-2.28,4.32-3.58,7.33-4.19,13.92-2.83,26.52-9.45,39.6-14.57,12.04-4.72,23.43-11.13,35-17.03,7.72-3.94,15.84-7.05,23.14-11.89,5.41-3.59,11.24-6.55,16.96-9.66,1.07-.58,2.49-.5,4.15-.79,.52,3.87-1.18,6.28-2.72,8.64-1.58,2.42-3.57,4.58-5.1,7.02-8.26,13.2-16.57,26.37-24.55,39.73-2.56,4.28-5.45,6.91-10.49,8.39-9.35,2.73-18.49,6.42-25.75,13.37-7.84,7.51-16.78,13.69-24.33,21.66-5.91,6.23-12.41,12.06-18.1,18.52-12.68,14.39-25.12,28.99-37.25,43.84-8.48,10.37-16.52,21.12-24.32,32.01-6.94,9.69-13.08,19.95-19.91,29.72-8.93,12.78-16.36,26.4-22.95,40.46-3.67,7.84-7.32,15.93-9.21,24.3-2.21,9.79-3.12,20.01-3.4,30.07-.23,7.96,1.57,15.86,6.82,22.5,3.51,4.45,7.67,7.21,13.38,8.53,13.03,3.03,24.17-.71,35.08-7.52,5.67-3.54,9.8-8.38,14.37-12.97,10.77-10.8,20.9-22.03,28.72-35.27,2.93-4.95,7-9.22,10.51-13.83,1.76-2.3,4.11-4.43,5.01-7.05,1.83-5.31,5.5-9.32,8.37-13.9,4.8-7.68,9.52-15.42,14.09-23.23,3.11-5.31,5.9-10.8,8.87-16.19,6.44-11.67,13.05-23.26,19.33-35.01,6.65-12.45,12.81-25.16,19.59-37.53,2.58-4.71,5.56-9.71,9.65-12.97,7.91-6.31,16.71-11.5,25.19-17.08,1.45-.95,3.15-1.51,4.75-2.26,1.09,1.05,2.13,1.65,2.56,2.54,4.23,8.72,12.22,10.96,20.73,11.3,7.28,.29,14.3-1.71,20.83-5.25,7.6-4.12,15.13-8.45,23.04-11.87,4.75-2.06,9.53-5.34,15.08-4.18,.56,1.1,.96,1.72,1.19,2.39,.36,1.03,.65,2.08,.87,3.15,2.19,10.35,9.96,15.06,19.09,17.04,8.86,1.92,17.96,1.27,26.7-2.09,8.1-3.12,16.11-6.3,23.73-10.55,4.9-2.73,5.86-2.37,9.35,1.58,11.71,13.27,26.68,16.05,42.63,11.4,15.59-4.54,31.29-9.19,45.88-16.69,.49-.25,1.36,.23,2.43,.45,.6,1.01,1.48,2.17,2.02,3.48,2.74,6.63,8.19,10.03,14.59,12.14,7.13,2.36,14.33,1.12,21.53,.04,2.73-.41,5.22-2.58,8.17-1.42,.18,.89,.66,1.76,.4,2.19-8.75,14.6-17.61,29.13-26.36,43.74-6.14,10.25-13.05,20-18.16,30.92-2.88,6.16-7.05,11.97-11.64,17.02-11.15,12.28-22.96,23.97-34.37,36.02-8.47,8.94-17.41,17.57-24.94,27.27-8.01,10.32-18.5,18.48-25.22,29.83-9.47,7.64-15.1,18.5-22.33,27.9-7.43,9.65-14.2,20.05-20.83,30.44-8.5,13.32-12.11,27.81-14.86,42.72-.88,4.76,.08,10.25,1.59,14.96,1.52,4.73,4.4,9.44,9.3,11.59,7.76,3.41,15.77,4.87,24.17,1.64,12.8-4.92,21.3-14.83,29.13-25.26,5.85-7.79,10.94-16.19,15.96-24.57,9.49-15.85,18.69-31.87,28.02-47.82,10.6-18.12,21.41-36.13,31.68-54.44,3.04-5.41,6.84-10.22,10.02-15.46,4.69-7.74,8.66-15.92,13.58-23.5,4.52-6.96,8.97-14,14.95-20,16.62-16.68,33.05-33.55,49.33-50.56,13.52-14.12,26.74-28.52,40.06-42.83,3.46-3.72,6.94-7.38,11.82-9.33,2.52,2.1,4.95,4.22,7.49,6.21,5.48,4.3,11.23,4.61,17.15,.94,1.84-1.14,3.63-2.35,5.43-3.56,5.1-3.43,9.94-7.37,15.35-10.21,8.26-4.34,16.68-8.69,26.35-8.65,2.62,3.03,5.2,5.6,7.3,8.52,4.52,6.29,11.27,9.52,18.1,11.45,10.04,2.84,20.41,4.67,31.02,4.78,7.05,.08,13.95-.9,20.23-3.52,9.67-4.04,19.2-8.66,27.06-15.95,3.17-2.94,6.67-5.46,11.05-7.44,8.22,11.25,20.22,11.85,31.56,9.38,10.78-2.35,21.64-5.82,31.23-12.17,4.41-2.92,9.23-5.96,15.67-5.45,4.5,5.92,10.82,10.26,18.3,12,16.62,3.86,33.37,7.24,50.46,2.25,2.4-.7,5-.73,7.49-1.16,6.79-1.16,13.68-1.95,20.34-3.65,14.39-3.67,28.32-8.76,42.15-14.21,14.41-5.68,26.46-14.86,38.56-24.06,2.25-1.71,3.69-4.44,5.63-6.59,1.43-1.58,2.84-3.37,4.64-4.4,4.69-2.71,9.64-4.97,14.4-7.56,13.4-7.27,26.09-15.65,37.91-25.26,13.2-10.74,26.22-21.69,39.3-32.57,8.04-6.69,15.2-14.45,24.08-20.13,7.09-10.4,18.43-16.06,27.26-25.33,.7,3.46-.51,5.47-2.04,7.5-8.27,10.98-16.74,21.82-24.61,33.08-10.79,15.42-23.27,29.55-33.35,45.52-11.01,17.44-23.17,34.16-34.45,51.44-8.51,13.03-16.37,26.49-24.62,39.69-9.01,14.42-17.26,29.27-25.02,44.38-5.13,9.99-9.57,20.35-15.04,30.15-6.73,12.07-11.73,24.85-17.01,37.54-3.62,8.7-6.6,17.62-9.72,26.5-3.24,9.19-5.57,18.6-8.48,27.85-5.13,16.28-7.07,33.27-10.2,49.98-2.35,12.54-2.28,25.09,1.71,37.63,3.07,9.66,9.16,16.39,17.13,21.75,4.97,3.35,10.52,2.57,15.49-.22,4.68-2.63,3.66-7.48,3.41-11.78-.1-1.77-.71-3.55-1.32-5.24-.99-2.72-2.07-5.41-3.28-8.04-2.76-6.02-4.7-12.03-3.04-18.87,.93-3.83,.81-7.92,1.15-11.89,1.48-17.06,5.38-33.71,10.05-50.06,3.87-13.55,8.2-27.01,12.99-40.34,6.28-17.44,14.26-34.05,22.55-50.49,5.37-10.65,11.02-21.19,16.59-31.75,1.86-3.52,3.83-6.99,5.93-10.38,7.81-12.62,15.44-25.37,23-38.11,11.09-18.68,23.83-36.2,35.72-54.3,8.14-12.39,17.11-24.24,25.76-36.29,1.47-2.06,3.23-3.91,4.76-5.92,2.85-3.76,6.41-3.98,11.24-2.41-2.01,3.2-3.55,6.05-5.47,8.61-3.48,4.64-7.03,9.26-10.83,13.63-6.69,7.7-9.81,16.8-11.08,26.68-1.24,9.71,3.1,17.36,12.29,20.49,6.16,2.1,12.51,2.49,19.19,.86,13.91-3.39,24.67-11.74,35.23-20.63,4.32-3.64,8.71-7.21,13.52-11.19,1.57,2.02,2.88,3.26,3.65,4.78,5.14,10.05,14.27,13.58,24.57,15.23,15.66,2.51,29.37-3.08,41.81-11.48,9.55-6.45,18.25-14.24,26.91-21.91,3.98-3.53,7.81-4.87,12.84-3.36,8.55,2.57,17.16,2.35,25.83,.4,2.38-.53,4.91-.38,7.18-.52,2.52,4.39,.77,8.34,.5,12.23-.96,13.96,5.53,23.77,18.86,28.04,3.44,1.1,7.04,1.71,10.58,2.5,14.92,3.33,27.9-1.16,39.55-10.21,4.55-3.53,8.58-7.73,13.46-12.18,2.79,.89,5.93,1.64,8.86,2.89,8.75,3.71,17.5,3.72,26.45,.8,6.13-1.99,12.36-3.65,18.75-5.52,1.13,1.56,2.05,2.63,2.74,3.83,4.35,7.59,11.23,11.2,19.61,11.95,6.84,.61,13.75,.86,20.62,.8,10.29-.1,20.02-3.08,29.58-6.64,4.67-1.74,8.89-1.83,13.28,1.37,10.64,7.75,22.71,8.64,35.33,6.67,20.04-3.13,36.4-13.4,51.56-26.11,1.02-.85,2.07-2.18,4.3-.54,.06,1.28,.42,3.05,.16,4.72-1.02,6.44-2.15,12.87-3.41,19.26-1.84,9.27-.54,18.14,3.69,26.44,3.04,5.96,7.84,10.2,14.37,12.56,6.85,2.47,13.48,1.55,20.23-.05,2.02-.48,4.22-1.61,6.05,1.15-2.17,5.92-4.38,12.04-6.67,18.13-6.1,16.23-12.82,32.21-18.45,48.62-2.83,8.24-6.06,16.33-9.05,24.51-3.24,8.86-6.66,17.66-9.55,26.62-4.9,15.18-9.25,30.54-14.24,45.69-2.02,6.15-4.24,12.55-7.85,17.82-9.45,13.77-17.84,28.17-26.67,42.31-2.49,3.99-5.43,7.72-7.79,11.78-4.35,7.5-8.21,15.28-12.66,22.72-6.88,11.5-13.35,23.26-19.89,34.92-10.79,19.25-19.87,39.46-29.62,59.3-12.09,24.59-20.54,50.35-24,77.57-1.25,9.84-.42,19.51,5.86,28,3.93,5.31,8.97,7.3,15.2,5.63,5.24-1.4,10.11-3.68,14.13-7.57,9.92-9.6,17.74-20.65,24.9-32.5,11.66-19.31,21.51-39.48,30.07-60.22,8.56-20.74,16.05-41.94,23.45-63.13,5.24-15.04,9.52-30.41,14.27-45.62,3.45-11.04,6.96-22.06,10.45-33.08,2.84-8.96,5.64-17.92,8.55-26.86,.66-2.05,1.4-4.16,2.56-5.94,10.04-15.47,20.1-30.91,31.38-45.54,8.41-10.9,16.28-22.22,24.41-33.33,7.92-10.82,15.61-21.81,23.86-32.36,14.53-18.57,28.36-37.64,41.38-57.28,4.4-6.64,8.41-13.6,11.88-20.76,3.12-6.43,5.66-13.28,3.77-20.7-2.88-1.56-5.25-.88-7.57,.33-5.88,3.05-10.93,7.22-15.15,12.25-7.92,9.45-15.71,19.02-23.32,28.72-3.8,4.85-6.91,10.24-10.64,15.15-8.55,11.25-17.2,22.43-25.98,33.49-6.66,8.39-13.6,16.56-20.42,24.83-.84-2.31-.47-3.96,.12-5.53,6.32-16.96,12.58-33.94,19.05-50.84,4.02-10.5,7.83-21.14,12.74-31.22,4.62-9.49,8.5-19.17,12.23-29.02,2.92-7.71,6.86-15.2,12.96-21.19,10.11-9.93,19.25-20.69,27.71-32.07,9.79-13.17,17.77-27.21,22.94-42.92,2.08-6.3,1.47-12.26,.32-18.2-1.47-7.65-10.22-12.92-18.14-12.28-5.51,.44-9.76,3.27-13.19,6.91-5.19,5.53-10.3,11.33-14.28,17.74-6.1,9.82-11.4,20.17-16.71,30.46-5.31,10.31-10.16,20.85-15.31,31.24-1.1,2.23-2.34,4.52-4.03,6.3-9.08,9.53-20.42,16.08-31.36,23.13-.8,.52-2.05,.34-3.28,.51-4.44-4.34-4.45-9.72-3.78-15.17,1.52-12.29,4.34-24.28,8.38-36.01,2.24-6.51,4.41-13.12,5.69-19.86,1.52-7.96-.42-15.16-7.61-20.09-2.07-1.42-4.19-2.77-6.05-3.99-10.81,1.88-20.96,3.91-30.47,9.04-8.25,4.45-17.24,7.53-26.23,11.36-1.02-.8-2.12-1.68-3.24-2.54-7.62-5.8-10.61-5.9-18.43-.45-5.65,3.94-11.41,7.74-16.81,11.99-18.36,14.47-39.48,22.73-61.97,27.97-3.18,.74-6.43,.84-9.09-2.6,1.22-2.18,2.34-4.39,3.65-6.47,4.04-6.41,8.56-12.55,12.15-19.2,4.15-7.71,2.92-14.74-3.11-20.95-1.33-1.37-3.82-2.28-5.76-2.27-5.11,.02-9.7,1.11-13.62,5.38-5.85,6.39-12.68,11.76-19.99,16.62-7.87,5.22-16.29,9.46-24.18,14.56-5,3.23-10.38,5.06-15.87,6.85-1.1,.36-2.56-.42-3.88-.67,.13-1.35-.04-2.18,.29-2.71,5.54-9.06,6.33-19.23,6.66-29.42,.1-3.14-.59-6.54-1.82-9.45-1.98-4.71-7.18-5.46-10.67-1.74-1.7,1.81-3.04,4.04-4.24,6.25-3.12,5.73-6.29,11.45-9.04,17.36-6.78,14.59-18.71,23.88-32.34,31.16-4.36,2.33-9.59,3.15-14.51,4.26-1.98,.45-4.42,.3-5.71-2.99,.81-1.44,1.85-3.27,2.87-5.1,3.87-6.94,8.1-13.72,11.46-20.91,1.85-3.95,3.38-7.86,6.23-11.3,2.01-2.43,3.5-5.57,4.37-8.63,2.71-9.55-4.17-19.53-13.41-19.26-5.48,.16-10.92,1.38-13.64,7.25-2.6,5.6-7.34,8.72-12.72,11.32-7.17,3.47-14.01,7.63-21.24,10.95-5.53,2.54-11.49,3.97-17.99,3.07-.83-4.21,.42-7.58,1.51-10.99,1.48-4.65,1.61-9.24-.49-13.8-3.09-6.71-9.43-8.41-14.95-3.42-4.01,3.63-7.98,7.59-10.87,12.1-7.16,11.16-16.63,20.09-26.28,28.86-6.99,6.35-15.42,10.71-23.81,14.9-3.43,1.72-7.42,3.3-11.75,.33-.24-1.85-.71-3.95-.74-6.06-.14-9.37,2.97-17.88,7.63-25.8,3.9-6.63,3.36-12.96,.53-19.73-1.72-4.11-4.49-6.37-8.59-7.57-7.8-2.27-14.08-.44-19.31,5.99-1.81,2.23-3.41,4.65-4.98,7.05-1.98,3.02-3.73,6.19-5.76,9.18-8.44,12.42-19.86,22-30.72,32.11-.55,.51-1.86,.21-3.9,.38,2.13-4.19,3.84-7.67,5.66-11.08,2.66-4.96,3.47-10.34,3.15-15.81-.51-8.67-4.92-12.82-13.77-13.77-2.3-.25-5.09,1.16-7.21-2.4,3.42-4.7,6.93-9.66,10.58-14.51,5.02-6.65,10.18-13.2,15.23-19.83,10.3-13.51,20.54-27.09,30.88-40.57,6.16-8.03,12.48-15.93,18.73-23.89,9.64-12.26,19.31-24.5,28.93-36.77,7.38-9.42,14.92-18.73,22-28.36,7.92-10.77,16.42-21.1,24.47-31.75,7.68-10.17,10.86-20.11,8.25-32.28-1.93-9.02-12.35-15.22-20.88-11.82-3.97,1.58-7.95,3.87-11.04,6.78-9.19,8.67-18.15,17.62-26.82,26.82-9.19,9.77-17.86,20.03-26.91,29.93-8.8,9.62-17.65,19.2-26.73,28.56-15.16,15.63-30.04,31.56-45.89,46.45-20.86,19.59-42.48,38.37-63.89,57.37-13.81,12.26-27.78,24.34-41.79,36.39-4.36,3.75-8.87,7.4-13.64,10.61-9.62,6.5-19.39,12.79-29.26,18.9-3.68,2.28-7.74,3.97-11.76,5.61-1.13,.46-3.53,.25-3.94-.46-.79-1.36-.79-3.31-.66-4.99,.07-.97,1.08-1.85,1.58-2.81,9.01-17.36,18.18-34.62,28.38-51.34,5.81-9.53,9.6-20.3,15.43-29.81,6.84-11.17,11.7-23.24,17.72-34.76,6.54-12.52,13.14-25.01,19.47-37.63,2.11-4.2,3.94-8.65,5.06-13.19,1.47-5.93,.48-11.49-4.81-15.61-6.65-5.17-16.85-4.13-21.65,4.04-3.48,5.92-7.54,11.53-11.69,17.03-9.35,12.4-19.01,24.58-28.37,36.98-12.2,16.15-24.31,32.36-37.35,47.85-1.63,1.94-3.1,4.02-4.64,6.04-10.56,13.84-20.82,27.92-31.77,41.45-15.95,19.72-31.22,39.93-46.02,60.51-5.93,8.24-11.52,16.71-17.44,24.95-3.95,5.49-5.15,5.61-13.18,2.41,2.1-3.41,4.15-6.75,6.22-10.08,2.2-3.55,3.22-7.54,2.3-11.49-2.03-8.7-13-14.68-21.64-11.67-5.44,1.89-10.68,4.48-15.77,7.21-12.12,6.52-24.1,13.31-36.16,19.95-.22,.12-.67-.2-1.57-.49,.22-2.29,.39-4.72,.68-7.13,1.34-10.91-6.77-18.93-17.66-18.47-4.35,.18-8.68,.72-13.02,1.11-3.58,.32-7.16,.66-10.33,.95-2.65-2.46-4.91-4.29-6.84-6.42-6.85-7.53-7.71-5.28-17.64-7.52-5.93-1.34-16.93,3.68-22.47,6.32-6.39,3.05-15.51,5.06-22.47,4.23-23.51-2.82-18.54-12.97-23.36-22.32ZM201.07,209.58c-6.75,10.36-14.86,19.6-22.13,29.51-3.42,4.66-6.99,9.24-10.73,13.64-.69,.81-2.86,1.2-3.78,.71-.82-.43-1.53-2.63-1.14-3.56,3.65-8.65,8.61-16.55,14.55-23.82,5.48-6.72,11-13.41,16.6-20.02,4.68-5.52,9.53-10.9,14.28-16.36,3.57-4.1,7.06-8.28,10.67-12.33,1.62-1.81,3.46-3.42,5.21-5.12,.58,.45,1.17,.9,1.75,1.36-.99,2.22-1.61,4.72-3.03,6.62-7.36,9.84-15.55,19.13-22.24,29.39Zm23.35,161.41c-6.14,9.41-11.17,19.41-16.28,29.4-8.06,15.78-16.89,31.16-25.29,46.77-8.23,15.27-17.61,29.79-27.92,43.74-2.78,3.76-4.39,8.4-7.24,12.1-7.48,9.7-15.22,19.2-23.1,28.58-3.71,4.42-7.94,8.41-12.02,12.51-.92,.93-2.2,1.5-5.42,3.62,2.21-12.42,4.01-22.25,8.12-31.67,4.81-10.99,11.14-21.11,17.02-31.48,7.68-13.55,16.5-26.29,26.38-38.42,5.63-6.91,10.39-14.67,15.56-22.03,7.94-11.3,17.8-20.98,26.09-31.93,5.91-7.81,12.67-14.75,19.38-21.79,1.19-1.25,2.44-2.75,4.5-1.45,.09,.71,.5,1.6,.21,2.03Zm469.54-70.47c-3.87,3.76-8.01,7.23-11.79,11.08-7.02,7.15-13.8,14.54-20.82,21.69-3.44,3.5-7.2,6.67-11.31,9.5,9.77-21.77,26.57-37.74,44.2-54.28,3.43,6.85,3.41,8.42-.29,12.01Zm71.89,.79c-1.78,12.25-10,16.53-20.91,17.84-2.19-3.16-.84-5.74,.65-8.23,1.66-2.77,3.72-5.32,5.15-8.19,3.42-6.86,8.59-11.32,16.53-13.09,1.2,4.29-.87,7.88-1.42,11.67Zm46.59,40.39c-7.8,2.46-15.55,1.21-22.92-1.12-1.16-2.67,.4-3.83,1.88-4.76,9.13-5.75,18.71-10.65,28.6-14.96,2.19-.96,4.12-.66,6.15,.46,3.13,1.72,6.36,3.29,10,5.15-5.46,10.23-14.83,12.44-23.71,15.23Zm227.3-27.43c-1.89,.56-4.12-.05-7.53-.16,2.7-3.99,4.38-7.17,6.7-9.79,15.96-18.11,28.13-39.3,45.62-56.15,.16-.15,.66,.04,1.83,.15-1.1,3.13-2.11,6.07-3.17,8.99-.99,2.72-1.95,5.45-3.05,8.13-3.1,7.58-4.56,15.32-1.65,23.24,1.2,3.27,3.08,6.29,4.68,9.47-13.11,9.3-28.64,11.75-43.43,16.13Zm723.1-42.81c-9.05,7.19-18.02,14.54-28.5,19.67-1.94,.95-3.94,1.88-6.01,2.47-3.02,.86-6.14,1.41-10.86,2.45,8.69-8.74,15.76-15.89,22.91-22.97,.99-.98,2.3-1.96,3.61-2.23,6.64-1.34,13.33-2.44,21.45-3.89-1.34,2.37-1.7,3.77-2.6,4.49Zm-46.55,396.8c-2.98,8.94-5.68,17.99-9.21,26.71-7.31,18.1-14.67,36.22-24.19,53.31-4.04,7.25-8.67,14.18-13.12,21.2-.23,.36-1.31,.19-2.71,.34,.23-1.47,.29-2.78,.64-4.02,5.28-18.56,13.67-35.84,22.16-53.05,7.68-15.57,15.83-30.91,23.84-46.32,.24-.47,1.2-.57,2.19-1.01,.16,1.02,.66,2.05,.4,2.83Z"/>
</svg>
