<svg xmlns="http://www.w3.org/2000/svg" width="26" height="30" viewBox="0 0 26 30">
  <g id="StackOverflow" transform="translate(0 0)">
    <path id="Union_1" data-name="Union 1" d="M0,10.695V0H3.03V7.724H21.812V0h3.03V10.695Z" transform="translate(0 19.305)" fill="#f7f8f0"/>
    <path id="Path_1" data-name="Path 1" d="M950.184,2936.66v2.758h13.868v-2.758Z" transform="translate(-944.694 -2914.4)" fill="#f7f8f0"/>
    <path id="Path_2" data-name="Path 2" d="M951.148,2926.551l-.611,2.662L964,2931.966l.434-2.753Z" transform="translate(-944.654 -2910.395)" fill="#f7f8f0"/>
    <path id="Path_3" data-name="Path 3" d="M954.8,2916.237l-1.22,2.5,12.483,5.646,1.219-2.372Z" transform="translate(-946.055 -2906.309)" fill="#f7f8f0"/>
    <path id="Path_4" data-name="Path 4" d="M959.326,2909.037l1.8-1.953,10.586,8.695-1.831,2.087Z" transform="translate(-948.403 -2902.522)" fill="#f7f8f0"/>
    <path id="Path_5" data-name="Path 5" d="M966.806,2901.429l2.239-1.641,8.218,10.911-2.128,1.707Z" transform="translate(-951.264 -2899.789)" fill="#f7f8f0"/>
  </g>
</svg>
